<?xml version="1.0" ?><svg viewBox="0 0 64 64" xmlns="http://www.w3.org/2000/svg"><g data-name="Layer 15" id="Layer_15"><path d="M60.35,21.93,47.57,9.52a.5.5,0,0,0-.85.36v6.59h-.17c-8.1,0-13,8.86-14.55,19.22-1.51-10.36-6.45-19.22-14.55-19.22h-.17V9.88a.5.5,0,0,0-.85-.36L3.65,21.93a.51.51,0,0,0,0,.72L16.43,35.07a.5.5,0,0,0,.85-.36V28.14q.42,0,.84,0c6.84,0,10.52,15.13,12.71,24.16l.48,2a.72.72,0,0,0,.14.24.51.51,0,0,0,.35.15h.4a.51.51,0,0,0,.35-.15.63.63,0,0,0,.14-.24l.48-2c2.19-9,5.87-24.16,12.71-24.16q.42,0,.84,0v6.57a.5.5,0,0,0,.85.36L60.35,22.65a.51.51,0,0,0,0-.72Z"/></g></svg>